<svg width="68" height="62" viewBox="0 0 68 62" fill="none" xmlns="http://www.w3.org/2000/svg">
<path d="M34.0106 31.0997V60.8313M34.0106 31.0997L25.7519 37.7067M34.0106 31.0997L42.2694 37.7067M10.9984 21.5755C7.87396 22.3617 5.14417 24.2618 3.32188 26.9188C1.49958 29.5757 0.710221 32.8066 1.1021 36.0045C1.49398 39.2024 3.04012 42.1472 5.45003 44.2855C7.85995 46.4238 10.9678 47.6085 14.1896 47.6171H17.4931M46.663 15.038C45.5339 10.5669 42.7469 6.69246 38.8671 4.20002C34.9873 1.70758 30.3049 0.783647 25.7692 1.61551C21.2334 2.44738 17.1836 4.9728 14.4408 8.67984C11.698 12.3869 10.4673 16.9982 10.9983 21.5789C10.9983 21.5789 11.5038 24.4926 12.5378 26.1444M46.663 15.038C48.931 14.4938 51.2886 14.4362 53.5806 14.8688C55.8725 15.3014 58.0468 16.2145 59.9604 17.548C61.874 18.8815 63.4835 20.6052 64.683 22.6055C65.8824 24.6059 66.6446 26.8376 66.9194 29.1537C67.1942 31.4699 66.9753 33.818 66.2772 36.0435C65.5791 38.269 64.4176 40.3214 62.8691 42.0656C61.3207 43.8098 59.4204 45.2063 57.2933 46.1632C55.1662 47.1201 52.8606 47.6156 50.5282 47.6172M46.663 15.038L42.2694 16.2339" stroke="white" stroke-width="0.978816" stroke-linecap="round" stroke-linejoin="round"/>
</svg>
