<svg width="20" height="19" viewBox="0 0 20 19" fill="none" xmlns="http://www.w3.org/2000/svg">
<path fill-rule="evenodd" clip-rule="evenodd" d="M19.9831 8.48727C19.9943 8.65693 20 8.82788 20 9C20 13.8325 15.5225 17.75 10 17.75C9.00956 17.7513 8.02323 17.6227 7.06625 17.3675C6.41625 17.6963 5.0175 18.295 2.73125 18.7487C2.43509 18.8075 2.13796 18.8612 1.84 18.91C1.59 18.95 1.4 18.69 1.49875 18.4575C1.60974 18.1957 1.71147 17.9302 1.80375 17.6612L1.8075 17.6488C2.1175 16.7487 2.37 15.7138 2.4625 14.75C0.92875 13.2125 0 11.2 0 9C0 4.1675 4.4775 0.25 10 0.25C10.4273 0.25 10.8483 0.273453 11.2615 0.318966C10.9763 0.685591 10.7327 1.08619 10.5378 1.51367C10.3602 1.50461 10.1809 1.5 10 1.5C5.005 1.5 1.25 5.01 1.25 9C1.25 10.835 2.02125 12.5375 3.3475 13.8675C3.47725 13.9977 3.57667 14.155 3.63868 14.3281C3.70069 14.5011 3.72376 14.6857 3.70625 14.8687C3.6184 15.7157 3.45185 16.5527 3.20875 17.3687C4.9525 16.965 6.0175 16.4975 6.50125 16.2525C6.77563 16.1135 7.09161 16.0806 7.38875 16.16C8.24054 16.3871 9.11846 16.5014 10 16.5C14.8532 16.5 18.5358 13.1877 18.741 9.33875C19.1911 9.10718 19.6081 8.82037 19.9831 8.48727Z" fill="white"/>
</svg>
